<?xml version="1.0" encoding="UTF-8" standalone="no"?>
<!-- Created with Inkscape (http://www.inkscape.org/) -->

<svg
   xmlns:dc="http://purl.org/dc/elements/1.1/"
   xmlns:cc="http://creativecommons.org/ns#"
   xmlns:rdf="http://www.w3.org/1999/02/22-rdf-syntax-ns#"
   xmlns:svg="http://www.w3.org/2000/svg"
   xmlns="http://www.w3.org/2000/svg"
   xmlns:xlink="http://www.w3.org/1999/xlink"
   xmlns:sodipodi="http://sodipodi.sourceforge.net/DTD/sodipodi-0.dtd"
   xmlns:inkscape="http://www.inkscape.org/namespaces/inkscape"
   width="30mm"
   height="31mm"
   viewBox="0 0 106.29921 109.84252"
   id="svg2"
   version="1.1"
   inkscape:version="0.91 r13725"
   sodipodi:docname="Küken2-Huhn-coloured.svg">
  <title
     id="title4136">chick - coloured</title>
  <defs
     id="defs4">
    <linearGradient
       inkscape:collect="always"
       id="linearGradient5074">
      <stop
         style="stop-color:#ffe992;stop-opacity:1"
         offset="0"
         id="stop5076" />
      <stop
         id="stop5078"
         offset="0.21122327"
         style="stop-color:#ffe88f;stop-opacity:1" />
      <stop
         style="stop-color:#ffdf64;stop-opacity:1;"
         offset="0.40522397"
         id="stop5080" />
      <stop
         id="stop5082"
         offset="0.78142565"
         style="stop-color:#ffdf64;stop-opacity:1;" />
      <stop
         style="stop-color:#ffdf64;stop-opacity:1"
         offset="1"
         id="stop5084" />
    </linearGradient>
    <pattern
       inkscape:collect="always"
       xlink:href="#Polkadots-large"
       id="pattern7138"
       patternTransform="matrix(1.475,0,0,1.5,21.185845,-0.1590101)" />
    <pattern
       inkscape:isstock="true"
       inkscape:stockid="Polka dots, large"
       id="Polkadots-large"
       patternTransform="translate(0,0) scale(10,10)"
       height="10"
       width="10"
       patternUnits="userSpaceOnUse"
       inkscape:collect="always">
      <circle
         id="circle5388"
         r="0.45"
         cy="0.810"
         cx="2.567"
         style="fill:black;stroke:none" />
      <circle
         id="circle5390"
         r="0.45"
         cy="2.33"
         cx="3.048"
         style="fill:black;stroke:none" />
      <circle
         id="circle5392"
         r="0.45"
         cy="2.415"
         cx="4.418"
         style="fill:black;stroke:none" />
      <circle
         id="circle5394"
         r="0.45"
         cy="3.029"
         cx="1.844"
         style="fill:black;stroke:none" />
      <circle
         id="circle5396"
         r="0.45"
         cy="1.363"
         cx="6.08"
         style="fill:black;stroke:none" />
      <circle
         id="circle5398"
         r="0.45"
         cy="4.413"
         cx="5.819"
         style="fill:black;stroke:none" />
      <circle
         id="circle5400"
         r="0.45"
         cy="4.048"
         cx="4.305"
         style="fill:black;stroke:none" />
      <circle
         id="circle5402"
         r="0.45"
         cy="3.045"
         cx="5.541"
         style="fill:black;stroke:none" />
      <circle
         id="circle5404"
         r="0.45"
         cy="5.527"
         cx="4.785"
         style="fill:black;stroke:none" />
      <circle
         id="circle5406"
         r="0.45"
         cy="5.184"
         cx="2.667"
         style="fill:black;stroke:none" />
      <circle
         id="circle5408"
         r="0.45"
         cy="1.448"
         cx="7.965"
         style="fill:black;stroke:none" />
      <circle
         id="circle5410"
         r="0.45"
         cy="5.049"
         cx="7.047"
         style="fill:black;stroke:none" />
      <circle
         id="circle5412"
         r="0.45"
         cy="0.895"
         cx="4.340"
         style="fill:black;stroke:none" />
      <circle
         id="circle5414"
         r="0.45"
         cy="0.340"
         cx="7.125"
         style="fill:black;stroke:none" />
      <circle
         id="circle5416"
         r="0.45"
         cy="1.049"
         cx="9.553"
         style="fill:black;stroke:none" />
      <circle
         id="circle5418"
         r="0.45"
         cy="2.689"
         cx="7.006"
         style="fill:black;stroke:none" />
      <circle
         id="circle5420"
         r="0.45"
         cy="2.689"
         cx="8.909"
         style="fill:black;stroke:none" />
      <circle
         id="circle5422"
         r="0.45"
         cy="4.407"
         cx="9.315"
         style="fill:black;stroke:none" />
      <circle
         id="circle5424"
         r="0.45"
         cy="3.870"
         cx="7.820"
         style="fill:black;stroke:none" />
      <circle
         id="circle5426"
         r="0.45"
         cy="5.948"
         cx="8.270"
         style="fill:black;stroke:none" />
      <circle
         id="circle5428"
         r="0.45"
         cy="7.428"
         cx="7.973"
         style="fill:black;stroke:none" />
      <circle
         id="circle5430"
         r="0.45"
         cy="8.072"
         cx="9.342"
         style="fill:black;stroke:none" />
      <circle
         id="circle5432"
         r="0.45"
         cy="9.315"
         cx="8.206"
         style="fill:black;stroke:none" />
      <circle
         id="circle5434"
         r="0.45"
         cy="9.475"
         cx="9.682"
         style="fill:black;stroke:none" />
      <circle
         id="circle5436"
         r="0.45"
         cy="6.186"
         cx="9.688"
         style="fill:black;stroke:none" />
      <circle
         id="circle5438"
         r="0.45"
         cy="6.296"
         cx="3.379"
         style="fill:black;stroke:none" />
      <circle
         id="circle5440"
         r="0.45"
         cy="8.204"
         cx="2.871"
         style="fill:black;stroke:none" />
      <circle
         id="circle5442"
         r="0.45"
         cy="8.719"
         cx="4.59"
         style="fill:black;stroke:none" />
      <circle
         id="circle5444"
         r="0.45"
         cy="9.671"
         cx="3.181"
         style="fill:black;stroke:none" />
      <circle
         id="circle5446"
         r="0.45"
         cy="7.315"
         cx="5.734"
         style="fill:black;stroke:none" />
      <circle
         id="circle5448"
         r="0.45"
         cy="6.513"
         cx="6.707"
         style="fill:black;stroke:none" />
      <circle
         id="circle5450"
         r="0.45"
         cy="9.670"
         cx="5.730"
         style="fill:black;stroke:none" />
      <circle
         id="circle5452"
         r="0.45"
         cy="8.373"
         cx="6.535"
         style="fill:black;stroke:none" />
      <circle
         id="circle5454"
         r="0.45"
         cy="7.154"
         cx="4.37"
         style="fill:black;stroke:none" />
      <circle
         id="circle5456"
         r="0.45"
         cy="7.25"
         cx="0.622"
         style="fill:black;stroke:none" />
      <circle
         id="circle5458"
         r="0.45"
         cy="5.679"
         cx="0.831"
         style="fill:black;stroke:none" />
      <circle
         id="circle5460"
         r="0.45"
         cy="8.519"
         cx="1.257"
         style="fill:black;stroke:none" />
      <circle
         id="circle5462"
         r="0.45"
         cy="6.877"
         cx="1.989"
         style="fill:black;stroke:none" />
      <circle
         id="circle5464"
         r="0.45"
         cy="3.181"
         cx="0.374"
         style="fill:black;stroke:none" />
      <circle
         id="circle5466"
         r="0.45"
         cy="1.664"
         cx="1.166"
         style="fill:black;stroke:none" />
      <circle
         id="circle5468"
         r="0.45"
         cy="0.093"
         cx="1.151"
         style="fill:black;stroke:none" />
      <circle
         id="circle5470"
         r="0.45"
         cy="10.093"
         cx="1.151"
         style="fill:black;stroke:none" />
      <circle
         id="circle5472"
         r="0.45"
         cy="4.451"
         cx="1.302"
         style="fill:black;stroke:none" />
      <circle
         id="circle5474"
         r="0.45"
         cy="3.763"
         cx="3.047"
         style="fill:black;stroke:none" />
    </pattern>
    <radialGradient
       inkscape:collect="always"
       xlink:href="#linearGradient5074"
       id="radialGradient4931"
       cx="37.51125"
       cy="24.928141"
       fx="37.51125"
       fy="24.928141"
       r="31.711798"
       gradientTransform="matrix(1.2122812,-0.00501807,0.00661402,1.5978256,-3.467107,-18.252045)"
       gradientUnits="userSpaceOnUse" />
  </defs>
  <sodipodi:namedview
     id="base"
     pagecolor="#ffffff"
     bordercolor="#666666"
     borderopacity="1.0"
     inkscape:pageopacity="0.0"
     inkscape:pageshadow="2"
     inkscape:zoom="2"
     inkscape:cx="55.295159"
     inkscape:cy="59.738447"
     inkscape:document-units="mm"
     inkscape:current-layer="layer3"
     showgrid="false"
     borderlayer="true"
     inkscape:window-width="2560"
     inkscape:window-height="1331"
     inkscape:window-x="0"
     inkscape:window-y="0"
     inkscape:window-maximized="1"
     inkscape:snap-global="false"
     fit-margin-top="1"
     fit-margin-right="1"
     fit-margin-bottom="1"
     fit-margin-left="1" />
  <metadata
     id="metadata7">
    <rdf:RDF>
      <cc:Work
         rdf:about="">
        <dc:format>image/svg+xml</dc:format>
        <dc:type
           rdf:resource="http://purl.org/dc/dcmitype/StillImage" />
        <dc:title>chick - coloured</dc:title>
        <cc:license
           rdf:resource="http://creativecommons.org/publicdomain/zero/1.0/" />
        <dc:subject>
          <rdf:Bag>
            <rdf:li>Küken</rdf:li>
            <rdf:li>Hühner</rdf:li>
            <rdf:li>Farm</rdf:li>
            <rdf:li>Animal</rdf:li>
            <rdf:li>Schule</rdf:li>
            <rdf:li>Unterricht</rdf:li>
            <rdf:li>Erziehung</rdf:li>
            <rdf:li>chick</rdf:li>
            <rdf:li>chickens</rdf:li>
            <rdf:li>farm</rdf:li>
            <rdf:li>animal</rdf:li>
            <rdf:li>school</rdf:li>
            <rdf:li>teaching</rdf:li>
            <rdf:li>education</rdf:li>
            <rdf:li>outline</rdf:li>
            <rdf:li>line art</rdf:li>
            <rdf:li />
          </rdf:Bag>
        </dc:subject>
        <dc:description>coloured line art chick</dc:description>
        <dc:date>2016-05-07</dc:date>
        <dc:creator>
          <cc:Agent>
            <dc:title>Frank Tremmel</dc:title>
          </cc:Agent>
        </dc:creator>
      </cc:Work>
      <cc:License
         rdf:about="http://creativecommons.org/publicdomain/zero/1.0/">
        <cc:permits
           rdf:resource="http://creativecommons.org/ns#Reproduction" />
        <cc:permits
           rdf:resource="http://creativecommons.org/ns#Distribution" />
        <cc:permits
           rdf:resource="http://creativecommons.org/ns#DerivativeWorks" />
      </cc:License>
    </rdf:RDF>
  </metadata>
  <g
     inkscape:groupmode="layer"
     id="layer3"
     inkscape:label="Ebene 3">
    <path
       style="fill:#ffc8b0;fill-rule:evenodd;stroke:#ff6600;stroke-width:0.29055119;stroke-linecap:butt;stroke-linejoin:miter;stroke-miterlimit:4;stroke-dasharray:none;stroke-opacity:1;fill-opacity:1"
       d="m 68.375,79.217522 2.875,7.125 -0.125,7.625 c -2.492776,-0.137772 -4.878392,0.1531 -6.875,2 l 4.625,0.875 -2.375,2.125 -7.5,0.25 -3.25,1.999998 -0.375,2.9375 3.75,-1.9375 1.75,0.75 7.75,-1 c 1.090011,-1.13798 1.666409,-3.200463 3.5,-2.999998 -0.808348,1.220828 -0.822672,2.838658 -1,4.374998 l 1.375,4.5 3,-4.625 1.5,-4.374998 3.5,2.249998 8.25,1.5 2.875,-1.5 c 1.43414,1.00403 2.730752,1.32043 4,1.5 -0.429526,-1.57905 -1.953179,-2.793383 -3.875,-3.874998 l -12.625,-2.375 c -1.717612,-1.064777 -2.730639,-3.538722 -3.625,-6.25 l -1.125,-11.5 z"
       id="path7072"
       inkscape:connector-curvature="0"
       sodipodi:nodetypes="cccccccccccccccccccccccccc" />
    <path
       style="fill:#ffc8b0;fill-rule:evenodd;stroke:#ff6600;stroke-width:0.29055119;stroke-linecap:butt;stroke-linejoin:miter;stroke-miterlimit:4;stroke-dasharray:none;stroke-opacity:1;fill-opacity:1"
       d="m 39.25,77.217522 c 0.208243,4.631884 -0.851362,8.418536 -2.125,12.0625 l -6.0625,4.125 -12.75,0.8125 c -1.083333,-0.07622 -2.166667,1.001691 -3.25,2.0625 l -0.75,2.8125 3.875,-2.1875 2.0625,0.9375 3.0625,-0.6875 c 3.892512,-0.34541 8.267726,-0.44947 11.25,-1.25 l -1.5625,1.75 c -1.307629,0.676408 -2.685779,1.211774 -3.1875,3.499998 -0.440825,1.73249 0.159947,2.42339 0.6875,3.1875 0.517894,-1.23211 1.112765,-2.38724 2.125,-3.125 0.865487,0.44292 1.612981,0.17789 2.3125,-0.375 l 4.9375,-3.874998 c 1.458333,-1.880174 2.916667,-1.326407 4.375,-0.0625 l 2.4375,1.3125 4.0625,-0.1875 3.4375,2.312498 C 54.453531,98.094522 52.953896,96.582217 51.25,95.155022 l -7.5,-1.875 -0.9375,-1.25 3.1875,-0.375 3.0625,1.25 c 0.798908,-0.277629 1.145283,-0.781525 3.1875,-0.4375 l 2.8125,1.625 c -0.0277,-1.341829 -1.038238,-2.574455 -2.5625,-3.75 -1.805632,-1.090431 -3.039887,-1.038107 -4.1875,-0.8125 -2.318026,-0.04839 -3.9436,-1.343187 -5.4375,-2.875 l -0.125,-5 1.8125,-4.375 z"
       id="path7070"
       inkscape:connector-curvature="0"
       sodipodi:nodetypes="ccccccccccccccccccccccccccccccccc" />
    <path
       style="fill:url(#radialGradient4931);fill-rule:evenodd;stroke:#ffcc00;stroke-width:0.29055119;stroke-linecap:butt;stroke-linejoin:miter;stroke-miterlimit:4;stroke-dasharray:none;stroke-opacity:1;fill-opacity:1"
       d="M 44.459339,77.492386 38.53732,77.403996 32.880465,70.067763 C 29.827617,68.354468 26.238187,67.475856 25.190679,62.643142 L 27.930718,50.97588 c -3.61435,-2.46337 -4.721933,-6.662194 -5.303301,-11.22532 0.77768,-6.116611 4.036506,-9.752076 7.601398,-13.081476 -0.678979,-4.826903 -1.643887,-9.731787 0.176777,-13.87697 0.757238,-2.097354 1.798331,-4.0172984 4.419417,-4.9497477 2.681113,-1.7365378 5.362227,-0.971722 8.04334,-1.2374369 2.059749,-1.0307938 4.83018,-1.6047203 10.16466,-0.5303301 4.728815,2.6869903 6.382084,6.6041987 8.927223,10.1646597 5.955426,5.430898 12.628112,5.923728 19.003495,10.606602 -1.232552,2.035298 -3.001913,2.191764 -4.684583,2.651651 l 7.866563,3.005203 -1.767767,1.944544 c 1.488251,1.290315 3.627171,1.68596 3.358757,5.391689 l -3.270368,0.53033 c -0.30408,3.810981 -1.718236,6.234367 -2.916816,8.927223 2.311683,3.594043 4.717257,7.222228 4.507806,9.899495 l -6.010408,10.871767 -3.270369,9.192388 -6.629126,0.441942 -2.386485,-3.800699 c -2.842373,0.606345 -5.710734,1.134724 -9.015612,0.353553 -5.45255,2.249602 -8.665601,0.953331 -11.313708,-1.237436 z"
       id="path7065"
       inkscape:connector-curvature="0"
       sodipodi:nodetypes="ccccccccccccccccccccccccccc" />
    <path
       style="fill:url(#pattern7138);fill-opacity:1;fill-rule:evenodd;stroke:#ffcc00;stroke-width:0.29055119;stroke-linecap:butt;stroke-linejoin:miter;stroke-miterlimit:4;stroke-dasharray:none;stroke-opacity:1;opacity:0.317"
       d="m 44.702418,77.322149 -5.922019,-0.08839 -5.656855,-7.336233 c -3.052848,-1.713295 -6.642278,-2.591907 -7.689786,-7.424621 l 2.740039,-11.667262 c -3.61435,-2.46337 -4.721933,-6.662194 -5.303301,-11.22532 0.77768,-6.116611 4.036506,-9.752076 7.601398,-13.081476 -0.678979,-4.826903 -1.643887,-9.731787 0.176777,-13.87697 0.757238,-2.097354 1.798331,-4.017298 4.419417,-4.9497466 2.681113,-1.736538 5.362227,-0.971722 8.04334,-1.237437 2.059749,-1.030794 4.83018,-1.604721 10.16466,-0.53033 4.728817,2.6869896 6.382087,6.6041976 8.927227,10.1646586 5.95542,5.430898 12.62811,5.923728 19.00349,10.606602 -1.23255,2.035298 -3.00191,2.191764 -4.68458,2.651651 l 7.86656,3.005203 -1.76777,1.944544 c 1.48826,1.290315 3.62718,1.68596 3.35876,5.391689 l -3.27037,0.53033 c -0.30408,3.810981 -1.71823,6.234367 -2.91681,8.927223 2.31168,3.594043 4.71725,7.222228 4.5078,9.899495 l -6.0104,10.871767 -3.27037,9.192388 -6.62913,0.441942 -2.38648,-3.800699 c -2.84238,0.606345 -5.71074,1.134724 -9.01562,0.353553 -5.452547,2.249602 -8.665598,0.953331 -11.313705,-1.237436 z"
       id="path7065-4"
       inkscape:connector-curvature="0"
       sodipodi:nodetypes="ccccccccccccccccccccccccccc" />
    <path
       style="color:#000000;font-style:normal;font-variant:normal;font-weight:normal;font-stretch:normal;font-size:medium;line-height:normal;font-family:sans-serif;text-indent:0;text-align:start;text-decoration:none;text-decoration-line:none;text-decoration-style:solid;text-decoration-color:#000000;letter-spacing:normal;word-spacing:normal;text-transform:none;direction:ltr;block-progression:tb;writing-mode:lr-tb;baseline-shift:baseline;text-anchor:start;white-space:normal;clip-rule:nonzero;display:inline;overflow:visible;visibility:visible;opacity:1;isolation:auto;mix-blend-mode:normal;color-interpolation:sRGB;color-interpolation-filters:linearRGB;solid-color:#000000;solid-opacity:1;fill:#a37070;fill-opacity:1;fill-rule:evenodd;stroke:none;stroke-width:1.77165353;stroke-linecap:butt;stroke-linejoin:miter;stroke-miterlimit:4;stroke-dasharray:none;stroke-dashoffset:0;stroke-opacity:1;color-rendering:auto;image-rendering:auto;shape-rendering:auto;text-rendering:auto;enable-background:accumulate"
       d="m 36.65625,88.449219 c -1.282611,0.697747 -2.473518,1.656679 -3.646484,2.546875 -1.317573,0.99994 -2.607943,1.948147 -3.884766,1.921875 -3.146828,-0.06475 -6.258358,0.148401 -8.39595,0.271194 -2.137592,0.122792 -3.648883,0.686011 -4.699753,1.590136 -1.05087,0.904125 -1.775184,2.105106 -2.107422,3.203125 -0.205389,0.678791 -0.285786,1.367631 0.409541,1.939683 1.187213,-0.837299 2.235385,-1.965712 3.508428,-2.275621 0.984791,-0.239737 1.259533,0.09127 1.881356,0.568984 0.423881,0.325643 0.843488,0.139082 2.560546,-0.330761 1.717058,-0.469843 4.813536,-0.553528 6.869398,-0.483686 2.055862,0.06984 2.790708,-0.163408 3.526586,-0.391196 -1.189034,0.532193 -2.149515,1.302716 -2.685546,2.355468 -0.606199,1.190555 -0.890875,2.646095 -0.507813,4.195315 0.119415,0.48295 0.546773,1.31393 1.321153,1.22683 0.339095,-1.16989 1.050334,-2.3058 1.844403,-2.98541 0.510475,0.262 1.164767,0.36232 1.459444,0.28206 0.564128,-0.15366 0.96559,-0.43886 2.054645,-1.08803 1.089055,-0.64917 3.05188,-1.712175 3.88239,-2.981633 0.830509,-1.269458 1.099751,-1.426281 1.484831,-1.449819 0.38508,-0.02354 1.086254,0.01051 1.861328,0.710938 0.860631,0.777746 1.603881,1.382609 2.404297,1.535156 1.560292,0.119273 3.131886,0.09891 4.702469,0.141237 1.790763,0.244459 2.782523,1.492941 4.205764,2.492531 l -0.07035,-1.9678 c -0.03371,-0.942953 -0.473472,-1.964509 -1.042969,-2.941406 -0.569498,-0.976897 -1.613674,-1.72778 -3.113281,-2.0625 -1.676163,-0.374128 -5.311043,-1.041192 -6.823679,-1.976603 1.909178,-0.471998 4.082294,0.292259 5.593213,1.042968 1.759419,-0.748512 2.255836,-0.643648 3.911116,-0.127141 l 2.448183,1.735867 C 55.620524,94.37963 55.820642,93.6815 55.398438,92.75 54.800844,91.43154 53.587436,90.350082 52.3125,89.566406 51.179867,88.8702 49.707067,88.417421 48.428692,88.590687 44.28064,88.046556 44.224062,86.955467 43.3359,85.962393 c -0.04878,-0.370211 -0.01834,-2.609397 0.228553,-4.032705 0.09362,-0.539692 0.442633,-1.529001 0.767578,-2.326172 0.324945,-0.797171 0.619141,-1.423828 0.619141,-1.423828 l -1.603516,-0.75586 c 0,0 -0.312328,0.66604 -0.65625,1.509766 -0.343921,0.843725 -0.733437,1.840319 -0.873047,2.693359 -0.292988,1.7902 0.433233,3.420801 0.693783,5.200176 2.058565,2.94306 3.76671,3.040039 5.771064,3.663105 1.126795,-0.240595 1.534713,-0.573162 3.145757,0.09785 0.760451,0.316734 2.828186,2.160515 2.760987,2.288523 -0.882225,-0.718765 -4.133291,-1.450884 -4.94056,-0.498354 -1.687415,-0.767603 -3.350049,-1.418614 -5.276578,-1.273475 -0.736153,0.108305 -1.584308,0.416328 -1.970856,0.789745 0.420685,1.481045 1.126067,1.818532 2.417716,2.200996 l 6.241517,1.540882 c 0.585701,0.144595 2.778381,2.281479 3.055187,3.740916 -0.346623,-0.09623 -2.45484,-2.233137 -2.878482,-2.219092 -1.584277,-0.04097 -3.211553,-0.03563 -4.71097,-0.08794 C 45.258183,96.706808 45.089351,96.360173 44.5,95.886719 c -0.877302,-0.70478 -2.097844,-1.141127 -3.076172,-1.089844 -0.9265,0.04857 -1.703719,0.566924 -2.569253,1.838333 -0.865533,1.271409 -2.423878,2.224104 -4.200281,3.284707 -0.4213,0.251535 -0.638231,0.501195 -0.918314,0.596815 -0.311443,0.10632 -0.677577,0.022 -1.176539,-0.079 -0.498962,-0.10102 -1.871798,2.69964 -2.142814,2.83684 -0.128048,-0.79134 -0.240154,-2.84412 0.557063,-3.371895 0.390688,-0.767299 1.635808,-1.069348 2.7392,-1.469208 1.109437,-0.856444 1.242293,-1.709995 2.117955,-2.843829 1.096254,-1.419464 1.464357,-2.112563 1.3569,-2.233208 -0.107457,-0.120646 -1.393841,0.768886 -1.991246,1.105909 -1.755379,0.990288 -3.134586,1.353321 -4.979703,1.36761 -3.215916,0.02491 -6.988978,1.014131 -8.811113,1.145825 -1.33078,0.09618 -1.739098,-0.05683 -2.497938,-0.703738 -0.379936,-0.323895 -3.398239,1.012605 -3.659462,1.714381 0.672893,-3.143213 3.644509,-3.312434 5.839811,-3.245265 2.157726,0.06602 5.092963,-0.281793 7.577157,-0.263032 2.484194,0.01876 4.026102,-1.018012 5.414832,-2.071956 1.388731,-1.053944 2.859767,-2.085727 3.62893,-2.441358 1.194118,-3.897773 2.208072,-7.901525 2.410133,-12.382861 l -1.882586,0.771013 c 0.163656,4.01769 -0.330202,6.66761 -1.58031,10.096231 z"
       id="path7057"
       inkscape:connector-curvature="0"
       sodipodi:nodetypes="cssssscsssscssccssssscccsssccscssccssccssccscccccscccsssssccccszsssscsssccccc" />
    <path
       style="color:#000000;font-style:normal;font-variant:normal;font-weight:normal;font-stretch:normal;font-size:medium;line-height:normal;font-family:sans-serif;text-indent:0;text-align:start;text-decoration:none;text-decoration-line:none;text-decoration-style:solid;text-decoration-color:#000000;letter-spacing:normal;word-spacing:normal;text-transform:none;direction:ltr;block-progression:tb;writing-mode:lr-tb;baseline-shift:baseline;text-anchor:start;white-space:normal;clip-rule:nonzero;display:inline;overflow:visible;visibility:visible;opacity:1;isolation:auto;mix-blend-mode:normal;color-interpolation:sRGB;color-interpolation-filters:linearRGB;solid-color:#000000;solid-opacity:1;fill:#a37070;fill-opacity:1;fill-rule:evenodd;stroke:none;stroke-width:1.77165353;stroke-linecap:butt;stroke-linejoin:miter;stroke-miterlimit:4;stroke-dasharray:none;stroke-dashoffset:0;stroke-opacity:1;color-rendering:auto;image-rendering:auto;shape-rendering:auto;text-rendering:auto;enable-background:accumulate"
       d="m 69.787109,79.941406 -1.601562,0.757813 c 0.919061,2.035874 1.924002,4.154651 2.211571,6.333462 0.306575,2.322815 0.327495,3.683888 0.07463,5.916233 -0.528918,0.10676 -1.825714,-0.04327 -2.674632,0.144032 -1.977711,0.436349 -3.414694,1.593191 -4.377029,3.085018 1.079104,0.18779 3.100406,0.777075 4.636829,0.859605 -1.7294,1.084235 -4.071202,1.665283 -5.806914,1.245634 -1.223844,-0.295893 -3.515442,-0.04658 -4.768649,0.728976 -2.788806,1.725871 -2.550526,3.037691 -2.868914,6.039751 1.574688,-0.77542 1.611805,-0.80013 3.085518,-1.55362 0.637089,-0.28173 1.533535,-0.58585 1.938764,-0.51198 l 1.039062,0.72851 c 2.959832,-0.72727 5.639368,-1.13052 8.323491,-1.05437 0.571887,-0.63359 1.174264,-1.85619 1.703853,-2.37726 -0.248889,1.64217 -0.230747,2.99655 -0.07712,4.29425 0.278188,2.34989 1.126347,3.46913 2.623981,5.0495 0.281692,-1.24575 0.742235,-2.69307 1.269498,-3.50917 0.465864,-0.72107 1.42665,-1.76724 2.158236,-2.9459 0.500762,-0.80679 0.869744,-1.62445 1.123047,-2.44141 0.795406,0.34702 1.435985,1.64408 4.285077,1.58003 2.317454,-0.0521 3.977877,0.59479 7.510655,1.30329 0.507696,-0.96989 2.380516,-1.34771 3.307022,-1.32521 0.538017,0.0131 1.727547,0.74281 3.03683,1.20929 0.64637,-0.94774 -1.397884,-3.962448 -2.566113,-4.562869 -1.07787,-0.553979 -2.491794,-2.039281 -5.425896,-2.184798 -2.934102,-0.145518 -5.001524,-0.72546 -8.81687,-1.029497 -1.511505,-2.517716 -1.966366,-4.264098 -2.660771,-6.794922 -0.767017,-2.795468 -1.484286,-5.59419 -1.082031,-8.482422 l -1.753906,-0.24414 c -0.462813,3.32304 0.356235,6.386357 1.126953,9.195312 0.854381,3.113876 1.058527,5.59668 4.006357,7.590079 3.47816,0.93274 6.048077,1.794452 9.078332,1.687949 1.775883,-0.06242 5.85301,1.106366 6.729228,3.204738 -0.65246,0.0328 -2.766119,-1.21604 -3.39495,-1.24865 -0.945003,-0.049 -1.670514,0.16686 -2.228207,0.54003 -4.407055,-0.91164 -6.068846,-0.9652 -8.225917,-1.184292 -1.729853,-0.175698 -2.877302,-1.935458 -4.412606,-2.572111 0.02769,1.485792 -0.497612,3.769683 -1.142083,4.826013 -0.772925,1.26688 -1.973236,2.2353 -2.468746,3.48048 -0.121241,-0.46839 -0.216796,-0.96906 -0.367317,-2.08665 -0.150521,-1.11759 -0.454322,-2.175 0.363406,-4.598894 l -0.08234,-2.696421 -1.156212,2.032166 c -1.988836,0.406298 -2.326843,1.979909 -3.037302,2.806679 -1.875658,-0.0226 -4.200206,0.14788 -7.181641,1.16061 -0.994167,-1.64229 -4.691167,-0.12636 -5.354085,1.01749 0.248041,-1.18894 2.978099,-3.26781 3.286186,-3.25152 1.12326,0.0594 3.43163,-0.213515 4.102146,-0.263445 2.410518,-0.1795 4.845229,0.292295 6.509408,-3.35373 l -4.135644,-0.660006 c 0.373142,-0.270624 2.279989,-0.703205 2.820961,-0.74954 1.424595,-0.122017 2.275271,0.306681 3.449219,-0.167433 0.328685,-2.700739 0.683159,-5.597253 0.239946,-8.067541 -0.466108,-2.5979 -1.293039,-4.537097 -2.372754,-6.899256 z"
       id="path7061"
       inkscape:connector-curvature="0"
       sodipodi:nodetypes="ccscsccssccccccscsscscscsscsccscscscscscsscccccssccscscc" />
    <path
       style="color:#000000;font-style:normal;font-variant:normal;font-weight:normal;font-stretch:normal;font-size:medium;line-height:normal;font-family:sans-serif;text-indent:0;text-align:start;text-decoration:none;text-decoration-line:none;text-decoration-style:solid;text-decoration-color:#000000;letter-spacing:normal;word-spacing:normal;text-transform:none;direction:ltr;block-progression:tb;writing-mode:lr-tb;baseline-shift:baseline;text-anchor:start;white-space:normal;clip-rule:nonzero;display:inline;overflow:visible;visibility:visible;opacity:1;isolation:auto;mix-blend-mode:normal;color-interpolation:sRGB;color-interpolation-filters:linearRGB;solid-color:#000000;solid-opacity:1;fill:#a88a31;fill-opacity:1;fill-rule:evenodd;stroke:none;stroke-width:2.83464575;stroke-linecap:butt;stroke-linejoin:miter;stroke-miterlimit:4;stroke-dasharray:none;stroke-dashoffset:0;stroke-opacity:1;color-rendering:auto;image-rendering:auto;shape-rendering:auto;text-rendering:auto;enable-background:accumulate"
       d="m 42.577205,5.739428 c 0,0 -2.720633,-1.06472 -5.081111,-0.167162 -2.360478,0.8975581 -5.063277,2.0598764 -6.617188,4.0488282 -2.673287,3.4217138 -2.237982,7.9293298 -2.505859,11.3691398 -0.145852,1.872893 0.869239,4.518089 0.947341,5.179228 -2.893023,2.669554 -5.634304,5.447386 -6.794997,8.783663 -1.054835,3.031998 -0.840939,6.793682 -0.002,10.158203 0.716729,2.874401 2.622876,5.161086 4.402916,6.697726 -0.235522,0.6499 -1.463245,2.017562 -1.981042,4.179227 -0.648045,2.70542 -1.253365,5.889132 -0.287109,8.476563 0.891373,2.386911 2.84035,3.828597 4.701172,5.02539 1.860822,1.196794 3.73845,2.194993 4.863281,3.480469 1.524704,1.742459 2.770707,3.708644 4.021485,5.654297 2.445485,-0.862949 4.426186,-0.856805 6.662109,-0.05273 l 1.014169,-2.284772 c 1.804553,1.21152 3.574668,2.797914 5.282706,2.7086 2.055655,-0.107492 4.21261,-1.54963 5.873084,-1.926355 3.019967,0.715062 5.562913,0.866335 8.333947,-0.05021 0.427087,1.62934 1.980134,2.773861 2.879977,4.127911 3.663584,-1.10214 4.096048,-1.669796 7.051091,0.187462 0.828592,-3.048809 1.489328,-6.05456 2.686044,-8.950176 1.439532,-3.483143 4.297811,-6.792585 6.523513,-10.138634 0.007,-0.01052 0.01493,-0.02044 0.02148,-0.03125 0.0065,-0.01071 0.01758,-0.0332 0.01758,-0.0332 1.225736,-2.314814 0.934523,-4.825353 -0.0098,-7.107422 -0.824112,-1.991564 -2.719904,-4.021474 -4.00153,-5.967295 2.022668,-2.517805 2.251114,-5.48148 3.550343,-8.040516 0.691751,-0.513028 1.268002,-0.477832 2.179688,-0.605468 0.164549,-2.72375 -0.502165,-4.808165 -2.408201,-6.40625 l 1.199218,-1.398438 C 84.432676,30.756023 80.162887,30.118527 78.668603,29.532752 79.9473,29.326381 81.938623,27.481194 82.347559,26.599618 80.547023,25.239892 76.268873,22.464022 72.228516,21.085938 69.152802,20.036874 66.24676,18.230879 63.652344,16.113281 62.129918,14.870657 60.914337,12.969357 59.5625,10.998047 58.210663,9.0267364 56.692682,6.9555636 54.310547,5.703125 52.172937,4.5792485 49.260165,4.3029167 46.755859,4.1679688 44.251553,4.0330208 42.577205,5.739428 42.577205,5.739428 Z m 0.410156,2.0189577 c 0.123017,-0.00536 1.344974,-0.8827241 3.616155,-0.7603391 2.349279,0.1265941 5.224818,0.1145199 6.47706,0.772902 1.663333,0.8745191 3.282382,2.6625354 4.585975,4.5634954 1.303594,1.900961 2.793159,3.884776 4.811542,5.532208 2.78472,2.272926 6.489399,4.266566 9.985409,5.458984 2.547547,0.868917 5.277319,2.601917 7.297373,3.905293 -1.161332,0.933169 -3.807073,1.607348 -5.214,2.183133 2.079753,1.218405 5.408205,2.320746 7.69983,3.023935 0.11197,1.235072 -1.313881,1.988631 -1.857957,2.623086 2.253252,-0.190772 4.69455,2.142733 4.837543,4.030404 -1.022356,0.258725 -2.726196,0.08517 -3.358146,0.583374 -0.658236,0.713532 -0.813913,1.064623 -1.316799,2.934067 -0.502885,1.869443 -0.142268,4.257672 -2.33497,6.165965 1.486937,2.440192 2.727573,4.961247 3.744564,7.38331 0.78175,1.861814 0.915825,3.276857 0.148437,4.648438 -0.06403,0.11445 -4.30624,6.827492 -5.988281,10.833984 -0.888592,2.116557 -1.473527,4.69402 -1.8125,6.074219 -1.849585,-0.573129 -3.700549,-0.257799 -5.466797,0.257812 -0.883005,-1.804175 -1.611665,-1.540287 -2.042546,-3.519418 -3.471412,1.100228 -7.083838,1.24365 -10.096126,0.519418 -1.948806,0.294879 -3.898932,1.248947 -5.648437,1.19141 -2.963249,-0.09745 -3.90504,-1.120548 -5.837891,-2.945312 l -1.4038,2.997164 c -1.408069,-0.340457 -3.022265,-0.259809 -4.465838,0.09619 -0.491162,-0.76215 -2.232317,-3.538656 -3.566942,-4.992263 -1.613429,-1.757268 -3.15828,-3.102142 -4.887639,-4.214384 -1.729359,-1.112243 -3.03733,-2.184678 -3.578125,-3.632813 -0.491426,-1.315936 -0.199795,-4.315043 0.386719,-6.824218 0.454503,-1.944416 1.102737,-3.829475 1.8125,-5.691407 -2.480047,-1.326287 -3.715254,-4.464979 -4.240234,-6.53125 -0.751101,-2.956258 -0.936905,-6.404595 -0.07031,-8.541015 1.568405,-3.866597 3.499764,-6.591614 6.16502,-8.898438 -0.122402,-1.921739 -0.287442,-3.868836 -0.168922,-5.77539 0.292911,-3.761276 -0.389785,-7.927263 1.383732,-10.197303 0.782559,-1.001649 3.739026,-1.9613132 5.920955,-2.7909791 2.11091,-0.802661 4.365139,-0.4346191 4.483446,-0.4642612 z"
       id="path7017"
       inkscape:connector-curvature="0"
       sodipodi:nodetypes="cssscsscsssscccsccccssssscccccccsssssccsssssccccccccsssccccscccsssscssccssc" />
    <path
       style="color:#000000;font-style:normal;font-variant:normal;font-weight:normal;font-stretch:normal;font-size:medium;line-height:normal;font-family:sans-serif;text-indent:0;text-align:start;text-decoration:none;text-decoration-line:none;text-decoration-style:solid;text-decoration-color:#000000;letter-spacing:normal;word-spacing:normal;text-transform:none;direction:ltr;block-progression:tb;writing-mode:lr-tb;baseline-shift:baseline;text-anchor:start;white-space:normal;clip-rule:nonzero;display:inline;overflow:visible;visibility:visible;opacity:1;isolation:auto;mix-blend-mode:normal;color-interpolation:sRGB;color-interpolation-filters:linearRGB;solid-color:#000000;solid-opacity:1;fill:#a88a31;fill-opacity:1;fill-rule:evenodd;stroke:none;stroke-width:1.77165353;stroke-linecap:butt;stroke-linejoin:miter;stroke-miterlimit:4;stroke-dasharray:none;stroke-dashoffset:0;stroke-opacity:1;color-rendering:auto;image-rendering:auto;shape-rendering:auto;text-rendering:auto;enable-background:accumulate"
       d="m 63.451249,24.119019 c -0.448144,0.195333 0.574725,4.077119 0.689681,4.767929 0.114957,0.690811 -0.666912,2.990722 -1.116084,3.686727 -0.395365,0.61263 -1.313679,2.174926 -3.43278,4.678811 -2.119102,2.503884 -5.34493,4.514581 -8.904565,4.706495 -2.893214,0.155986 -7.565171,-0.486573 -11.332529,-1.687692 -3.767357,-1.201118 -6.574108,-2.680597 -7.004385,-2.112113 -0.430277,0.568485 2.709359,2.087188 6.555664,3.313477 3.846305,1.226289 8.455263,2.440337 11.876953,2.25586 4.301633,-0.231919 7.65991,-3.07998 9.939453,-5.773438 2.209543,-2.610748 3.257498,-4.69156 3.349839,-4.836627 0.972404,-1.52764 1.433706,-3.225926 1.240005,-4.389935 -0.193701,-1.16401 -1.413108,-4.804828 -1.861252,-4.609494 z"
       id="path7019"
       inkscape:connector-curvature="0"
       sodipodi:nodetypes="zssssszsssssz" />
    <path
       style="color:#000000;font-style:normal;font-variant:normal;font-weight:normal;font-stretch:normal;font-size:medium;line-height:normal;font-family:sans-serif;text-indent:0;text-align:start;text-decoration:none;text-decoration-line:none;text-decoration-style:solid;text-decoration-color:#000000;letter-spacing:normal;word-spacing:normal;text-transform:none;direction:ltr;block-progression:tb;writing-mode:lr-tb;baseline-shift:baseline;text-anchor:start;white-space:normal;clip-rule:nonzero;display:inline;overflow:visible;visibility:visible;opacity:1;isolation:auto;mix-blend-mode:normal;color-interpolation:sRGB;color-interpolation-filters:linearRGB;solid-color:#000000;solid-opacity:1;fill:#a88a31;fill-opacity:1;fill-rule:evenodd;stroke:none;stroke-width:1.77165353;stroke-linecap:butt;stroke-linejoin:miter;stroke-miterlimit:4;stroke-dasharray:none;stroke-dashoffset:0;stroke-opacity:1;color-rendering:auto;image-rendering:auto;shape-rendering:auto;text-rendering:auto;enable-background:accumulate"
       d="m 33.283519,23.829364 c -0.327511,0.234106 0.417986,1.617328 0.729693,2.066125 0.215185,0.309823 0.846444,1.045993 1.113318,1.38017 -0.937033,1.658585 -2.042529,3.063873 -1.890202,4.607153 0.170776,1.730184 2.842345,4.2304 3.04857,4.025846 0.206225,-0.204554 -1.635191,-2.842079 -1.638451,-4.111286 -0.0055,-2.132076 0.740694,-3.254199 1.713388,-4.793695 -0.585905,-0.322844 -1.208819,-1.058932 -1.642846,-1.633771 -0.259915,-0.374227 -1.105959,-1.774648 -1.43347,-1.540542 z"
       id="path7021"
       inkscape:connector-curvature="0"
       sodipodi:nodetypes="zscszsccz" />
    <path
       style="color:#000000;font-style:normal;font-variant:normal;font-weight:normal;font-stretch:normal;font-size:medium;line-height:normal;font-family:sans-serif;text-indent:0;text-align:start;text-decoration:none;text-decoration-line:none;text-decoration-style:solid;text-decoration-color:#000000;letter-spacing:normal;word-spacing:normal;text-transform:none;direction:ltr;block-progression:tb;writing-mode:lr-tb;baseline-shift:baseline;text-anchor:start;white-space:normal;clip-rule:nonzero;display:inline;overflow:visible;visibility:visible;opacity:1;isolation:auto;mix-blend-mode:normal;color-interpolation:sRGB;color-interpolation-filters:linearRGB;solid-color:#000000;solid-opacity:1;fill:#a88a31;fill-opacity:1;fill-rule:evenodd;stroke:none;stroke-width:1.77165353;stroke-linecap:butt;stroke-linejoin:miter;stroke-miterlimit:4;stroke-dasharray:none;stroke-dashoffset:0;stroke-opacity:1;color-rendering:auto;image-rendering:auto;shape-rendering:auto;text-rendering:auto;enable-background:accumulate"
       d="m 57.424383,15.435198 c -0.441543,0.162673 0.871755,1.997418 0.908414,2.769156 0.0548,1.153557 -0.530421,1.522119 -1.387409,2.395987 1.036343,0.01969 1.413825,0.198123 2.269456,0.620366 0.273207,0.134824 1.869094,1.824982 2.277536,1.546904 0.408443,-0.278077 -0.723837,-1.882184 -1.258502,-2.310998 -0.219187,-0.175793 -0.798039,-0.639233 -1.070581,-0.756394 0.196792,-0.44881 0.299578,-1.165895 0.278072,-1.581572 -0.06859,-1.325714 -1.575443,-2.846122 -2.016986,-2.683449 z"
       id="path7023"
       inkscape:connector-curvature="0"
       sodipodi:nodetypes="zscszscsz" />
    <path
       style="fill:#ffc8b0;fill-rule:evenodd;stroke:#ff6600;stroke-width:0.29055119;stroke-linecap:butt;stroke-linejoin:miter;stroke-miterlimit:4;stroke-dasharray:none;stroke-opacity:1;fill-opacity:1"
       d="m 46.3125,19.217521 c -0.59838,0.791667 -0.734725,1.583333 -0.5,2.375 l 1.0625,5.0625 c -1.652062,0.890347 -1.853271,2.176381 -1.6875,3.5625 -1.361097,0.106506 -2.32189,0.880184 -3.1875,1.812501 -0.449581,1.235207 -0.277117,2.159392 0.9375,2.5625 l 3.625,-0.6875 c 1.647828,1.881279 3.679821,3.176171 6.8125,4.5625 l 1.125,-3.125 0.0625,-3.0625 2.625,-1 c 0.221204,-0.708715 0.104548,-1.544129 -1,-2.750001 l -2.75,-0.8125 -1.3125,-2.25 -1.375,0.3125 -2.1875,-5.3125 c -1.302488,-0.969155 -1.756945,-1.090278 -2.25,-1.25 z"
       id="path7074"
       inkscape:connector-curvature="0"
       sodipodi:nodetypes="ccccccccccccccccc" />
    <path
       style="color:#000000;font-style:normal;font-variant:normal;font-weight:normal;font-stretch:normal;font-size:medium;line-height:normal;font-family:sans-serif;text-indent:0;text-align:start;text-decoration:none;text-decoration-line:none;text-decoration-style:solid;text-decoration-color:#000000;letter-spacing:normal;word-spacing:normal;text-transform:none;direction:ltr;block-progression:tb;writing-mode:lr-tb;baseline-shift:baseline;text-anchor:start;white-space:normal;clip-rule:nonzero;display:inline;overflow:visible;visibility:visible;opacity:1;isolation:auto;mix-blend-mode:normal;color-interpolation:sRGB;color-interpolation-filters:linearRGB;solid-color:#000000;solid-opacity:1;fill:#a37070;fill-opacity:1;fill-rule:evenodd;stroke:none;stroke-width:1.77165353;stroke-linecap:butt;stroke-linejoin:miter;stroke-miterlimit:4;stroke-dasharray:none;stroke-dashoffset:0;stroke-opacity:1;color-rendering:auto;image-rendering:auto;shape-rendering:auto;text-rendering:auto;enable-background:accumulate"
       d="m 46.14863,18.648592 c -0.883409,1.180159 -0.848676,2.988499 -0.796387,3.660406 l 0.307913,3.956627 c -0.2651,0.369682 -0.617388,0.752156 -0.949218,1.359375 -0.308505,0.564535 -0.429375,1.34218 -0.355469,2.208984 -2.266625,1.156117 -3.570236,1.609739 -3.398057,3.957914 0.101202,1.380187 1.506688,1.405583 2.610947,1.661227 0.794986,0.178596 1.770468,0.04757 2.732422,-0.421875 0.699646,0.58245 1.230175,1.159251 1.953125,1.835938 0.847052,0.792847 1.989812,1.626567 3.571699,2.031024 1.758664,1.067369 2.123534,0.924687 2.438067,-0.622821 0.839961,-1.658008 0.885483,-3.626981 1.007812,-5.337891 0.570677,-0.135516 1.172952,-0.225049 1.605469,-0.572266 0.638191,-0.512327 1.453776,-1.268476 1.210594,-2.457054 -0.243181,-1.188578 -1.396254,-1.783701 -2.114891,-2.150368 -0.628323,-0.320586 -1.185305,-0.498564 -1.685547,-0.71875 -0.205038,-0.539801 -0.383485,-1.091889 -0.824218,-1.601562 -0.436581,-0.504871 -1.212942,-0.801343 -2.050782,-1.058594 -0.481781,-0.928687 -0.941457,-1.627056 -1.767578,-3.279297 0,0 -0.0085,-0.01857 -0.01367,-0.02734 -0.0052,-0.0089 0.66732,0.861489 -0.01758,-0.02539 -0.916203,-1.186395 -2.296037,-2.109075 -3.464651,-2.398287 z m 0.393268,0.96159 c 0.524861,-0.239416 1.967738,2.694706 2.249921,3.16065 0.817929,1.350577 0.984851,2.807108 1.617877,4.019072 0.799405,-0.635439 1.166708,-0.555515 1.711398,-0.192252 0.431089,0.662413 0.572706,1.108777 0.828125,1.773438 1.266827,0.510545 2.96093,0.0076 3.199219,1.912109 0.145676,1.164286 -1.638951,1.490955 -2.481197,1.566446 0.459656,2.742908 0.03838,4.231025 -0.834938,5.694547 -1.523366,-0.683142 -2.718858,-1.336285 -3.369408,-1.969975 -1.15524,-1.125301 -1.6527,-2.128838 -2.807598,-2.989047 -1.289745,1.01029 -3.110842,1.452105 -3.51486,0.4519 -0.389561,-0.964414 0.974885,-2.596913 3.614009,-2.248507 -0.325646,-0.829827 -0.797104,-1.652061 -0.488812,-2.313956 0.359953,-0.772822 1.009083,-0.827865 2.514053,-0.58996 -0.302585,-1.942946 -1.132265,-3.161301 -1.702281,-4.724953 -0.195473,-0.536216 -0.987593,-3.343291 -0.535508,-3.549512 z"
       id="path7025"
       inkscape:connector-curvature="0"
       sodipodi:nodetypes="cscscsccscccssscscssscsscccsccscscscss" />
    <path
       style="color:#000000;font-style:normal;font-variant:normal;font-weight:normal;font-stretch:normal;font-size:medium;line-height:normal;font-family:sans-serif;text-indent:0;text-align:start;text-decoration:none;text-decoration-line:none;text-decoration-style:solid;text-decoration-color:#000000;letter-spacing:normal;word-spacing:normal;text-transform:none;direction:ltr;block-progression:tb;writing-mode:lr-tb;baseline-shift:baseline;text-anchor:start;white-space:normal;clip-rule:nonzero;display:inline;overflow:visible;visibility:visible;opacity:1;isolation:auto;mix-blend-mode:normal;color-interpolation:sRGB;color-interpolation-filters:linearRGB;solid-color:#000000;solid-opacity:1;fill:#a88a31;fill-opacity:1;fill-rule:evenodd;stroke:none;stroke-width:1.77165353;stroke-linecap:butt;stroke-linejoin:miter;stroke-miterlimit:4;stroke-dasharray:none;stroke-dashoffset:0;stroke-opacity:1;color-rendering:auto;image-rendering:auto;shape-rendering:auto;text-rendering:auto;enable-background:accumulate"
       d="m 35.005583,61.972242 c -0.448952,0.239309 0.493014,3.788805 1.383089,5.090258 0.890074,1.301453 4.346026,3.212258 4.541669,2.684498 0.195644,-0.527759 -2.400213,-2.161077 -3.080732,-3.156121 -0.680519,-0.995045 -2.395074,-4.857944 -2.844026,-4.618635 z"
       id="path7027"
       inkscape:connector-curvature="0"
       sodipodi:nodetypes="zszsz" />
    <path
       style="color:#000000;font-style:normal;font-variant:normal;font-weight:normal;font-stretch:normal;font-size:medium;line-height:normal;font-family:sans-serif;text-indent:0;text-align:start;text-decoration:none;text-decoration-line:none;text-decoration-style:solid;text-decoration-color:#000000;letter-spacing:normal;word-spacing:normal;text-transform:none;direction:ltr;block-progression:tb;writing-mode:lr-tb;baseline-shift:baseline;text-anchor:start;white-space:normal;clip-rule:nonzero;display:inline;overflow:visible;visibility:visible;opacity:1;isolation:auto;mix-blend-mode:normal;color-interpolation:sRGB;color-interpolation-filters:linearRGB;solid-color:#000000;solid-opacity:1;fill:#a88a31;fill-opacity:1;fill-rule:evenodd;stroke:none;stroke-width:1.77165353;stroke-linecap:butt;stroke-linejoin:miter;stroke-miterlimit:4;stroke-dasharray:none;stroke-dashoffset:0;stroke-opacity:1;color-rendering:auto;image-rendering:auto;shape-rendering:auto;text-rendering:auto;enable-background:accumulate"
       d="m 74.789435,64.426887 c -0.757723,1.252439 -1.592336,2.206956 -2.443017,3.129179 -0.798916,0.866103 -2.004536,1.680387 -1.739659,2.162317 0.264876,0.48193 1.893178,-0.325667 2.688989,-1.086206 1.277194,-1.220588 1.991713,-2.156575 2.968261,-3.839399 0.649804,-1.119767 1.038112,-4.284999 0.619127,-4.500126 -0.418985,-0.215127 -1.39721,2.983004 -2.093701,4.134235 z"
       id="path7029"
       inkscape:connector-curvature="0"
       sodipodi:nodetypes="sszsszs" />
    <path
       style="color:#000000;font-style:normal;font-variant:normal;font-weight:normal;font-stretch:normal;font-size:medium;line-height:normal;font-family:sans-serif;text-indent:0;text-align:start;text-decoration:none;text-decoration-line:none;text-decoration-style:solid;text-decoration-color:#000000;letter-spacing:normal;word-spacing:normal;text-transform:none;direction:ltr;block-progression:tb;writing-mode:lr-tb;baseline-shift:baseline;text-anchor:start;white-space:normal;clip-rule:nonzero;display:inline;overflow:visible;visibility:visible;opacity:1;isolation:auto;mix-blend-mode:normal;color-interpolation:sRGB;color-interpolation-filters:linearRGB;solid-color:#000000;solid-opacity:1;fill:#a37070;fill-opacity:1;fill-rule:evenodd;stroke:none;stroke-width:1px;stroke-linecap:butt;stroke-linejoin:miter;stroke-miterlimit:4;stroke-dasharray:none;stroke-dashoffset:0;stroke-opacity:1;color-rendering:auto;image-rendering:auto;shape-rendering:auto;text-rendering:auto;enable-background:accumulate"
       d="m 47.433942,30.808319 c -0.232061,0.453981 0.457529,0.678094 0.798724,0.901263 0.330913,0.216444 0.790628,0.60929 0.961506,0.271171 0.170881,-0.33811 -0.07777,-0.867163 -0.389353,-1.099972 -0.366571,-0.273899 -1.138819,-0.526444 -1.370877,-0.07246 z"
       id="path7041"
       inkscape:connector-curvature="0"
       sodipodi:nodetypes="zszsz" />
    <path
       style="color:#000000;font-style:normal;font-variant:normal;font-weight:normal;font-stretch:normal;font-size:medium;line-height:normal;font-family:sans-serif;text-indent:0;text-align:start;text-decoration:none;text-decoration-line:none;text-decoration-style:solid;text-decoration-color:#000000;letter-spacing:normal;word-spacing:normal;text-transform:none;direction:ltr;block-progression:tb;writing-mode:lr-tb;baseline-shift:baseline;text-anchor:start;white-space:normal;clip-rule:nonzero;display:inline;overflow:visible;visibility:visible;opacity:1;isolation:auto;mix-blend-mode:normal;color-interpolation:sRGB;color-interpolation-filters:linearRGB;solid-color:#000000;solid-opacity:1;fill:#a37070;fill-opacity:1;fill-rule:evenodd;stroke:none;stroke-width:1px;stroke-linecap:butt;stroke-linejoin:miter;stroke-miterlimit:4;stroke-dasharray:none;stroke-dashoffset:0;stroke-opacity:1;color-rendering:auto;image-rendering:auto;shape-rendering:auto;text-rendering:auto;enable-background:accumulate"
       d="m 52.932101,29.626953 c -1.01176,-0.377035 -1.123715,-0.05931 -1.665711,0.503179 1.448197,2.363277 1.155184,5.155724 1.637677,7.626301 l 0.878408,-0.872625 c -0.504924,-1.912345 -0.74231,-4.713322 -1.456534,-6.207069 0.501308,0.190204 0.939005,0.07641 1.20508,-0.203852 0.358456,-0.377567 0.190868,-0.558543 -0.59892,-0.845934 z"
       id="path7043"
       inkscape:connector-curvature="0"
       sodipodi:nodetypes="cccccsc" />
    <path
       style="fill:#411c1c;fill-rule:evenodd;stroke:#000000;stroke-width:1px;stroke-linecap:butt;stroke-linejoin:miter;stroke-opacity:1;fill-opacity:1"
       d="m 37.167301,24.194213 c 0,0 0.205082,3.16566 1.502601,4.065864 1.291181,0.895807 4.331029,0 4.331029,0 -1.586071,-3.028158 -3.54048,-4.337406 -5.83363,-4.065864 z"
       id="path7049"
       inkscape:connector-curvature="0"
       sodipodi:nodetypes="cscc" />
    <path
       style="fill:#474747;fill-rule:evenodd;stroke:#2f2f2f;stroke-width:1px;stroke-linecap:butt;stroke-linejoin:miter;stroke-opacity:1;fill-opacity:1"
       d="m 56.612737,21.630951 c -0.325069,0.01684 -0.829342,-0.225793 -0.928078,1.944543 -0.08927,1.007818 0.03459,1.721196 0.309359,2.253903 0.688029,1.333939 1.956019,-4.267719 0.618719,-4.198446 z"
       id="path7051"
       inkscape:connector-curvature="0"
       sodipodi:nodetypes="scss" />
    <path
       style="opacity:1;fill:#ffffff;fill-opacity:1;stroke:none;stroke-width:0.29055119;stroke-linecap:round;stroke-linejoin:round;stroke-miterlimit:4;stroke-dasharray:none;stroke-dashoffset:0;stroke-opacity:1"
       d="m 39.435586,26.614021 c -0.470126,0.05823 -0.956224,-0.256392 -1.092384,-0.70704 -0.136176,-0.450646 0.12786,-0.870933 0.593355,-0.94449 0.465498,-0.07355 0.96057,0.226798 1.121026,0.703033 0.128682,0.480693 -0.151884,0.890282 -0.622011,0.948514 z"
       id="path7067"
       inkscape:connector-curvature="0"
       sodipodi:nodetypes="scccs" />
  </g>
</svg>
